HIERARCHY
ROOT root
{
	OFFSET	0	13.1	24.9
	CHANNELS 6  Xposition Yposition Zposition Xrotation Yrotation Zrotation
	JOINT spine_1
	{
		OFFSET	0	9.99999	0
		CHANNELS 3  Xrotation Yrotation Zrotation
		JOINT spine_2
		{
			OFFSET	0	112	-10
			CHANNELS 3  Xrotation Yrotation Zrotation
			JOINT spine_3
			{
				OFFSET	0	206.5	19.3
				CHANNELS 3  Xrotation Yrotation Zrotation
				JOINT spine_4
				{
					OFFSET	0	110.4	14.6
					CHANNELS 3  Xrotation Yrotation Zrotation
					JOINT neck_1
					{
						OFFSET	0	71.8	-50.3
						CHANNELS 3  Xrotation Yrotation Zrotation
						JOINT neck_2
						{
							OFFSET	0	86.2	-25.8
							CHANNELS 3  Xrotation Yrotation Zrotation
							JOINT head_ee
							{
								OFFSET	0	179.8	-8.7
								CHANNELS 3  Xrotation Yrotation Zrotation
								End Site
								{
									OFFSET	1	0	0
								}
							}
						}
					}
					JOINT left_clavicle
					{
						OFFSET	-43.2	22.4	-70.8
						CHANNELS 3  Xrotation Yrotation Zrotation
						JOINT left_shoulder
						{
							OFFSET	-93.9	-5.79999	48.7
							CHANNELS 3  Xrotation Yrotation Zrotation
							JOINT left_elbow
							{
								OFFSET	-291.4	-30.8	15.2
								CHANNELS 3  Xrotation Yrotation Zrotation
								JOINT left_lowarm_twist
								{
									OFFSET	-110.7	-3.89999	13.6
									CHANNELS 3  Xrotation Yrotation Zrotation
									JOINT left_hand
									{
										OFFSET	-110.7	-3.89999	13.6
										CHANNELS 3  Xrotation Yrotation Zrotation
										JOINT left_ee
										{
											OFFSET	-80.8	-5.10001	12.1
											CHANNELS 3  Xrotation Yrotation Zrotation
											End Site
											{
												OFFSET	1	0	0
											}
										}
									}
								}
							}
						}
					}
					JOINT right_clavicle
					{
						OFFSET	43.2	22.4	-70.8
						CHANNELS 3  Xrotation Yrotation Zrotation
						JOINT right_shoulder
						{
							OFFSET	93.9	-5.79999	48.7
							CHANNELS 3  Xrotation Yrotation Zrotation
							JOINT right_elbow
							{
								OFFSET	291.4	-30.8	15.2
								CHANNELS 3  Xrotation Yrotation Zrotation
								JOINT right_lowarm_twist
								{
									OFFSET	110.7	-3.89999	13.6
									CHANNELS 3  Xrotation Yrotation Zrotation
									JOINT right_hand
									{
										OFFSET	110.7	-3.89999	13.6
										CHANNELS 3  Xrotation Yrotation Zrotation
										JOINT right_ee
										{
											OFFSET	80.8	-5.10001	12.1
											CHANNELS 3  Xrotation Yrotation Zrotation
											End Site
											{
												OFFSET	1	0	0
											}
										}
									}
								}
							}
						}
					}
				}
			}
		}
	}
	JOINT left_hip
	{
		OFFSET	-82.8	-127.5	0.300001
		CHANNELS 3  Xrotation Yrotation Zrotation
		JOINT left_knee
		{
			OFFSET	-28.2	-396.7	2.2
			CHANNELS 3  Xrotation Yrotation Zrotation
			JOINT left_ankle
			{
				OFFSET	-11.7	-411.3	35.4
				CHANNELS 3  Xrotation Yrotation Zrotation
				JOINT left_toes
				{
					OFFSET	0	-60	-88.6
					CHANNELS 3  Xrotation Yrotation Zrotation
					JOINT left_foot_ee
					{
						OFFSET	-22.5	-16.5	-42.2
						CHANNELS 3  Xrotation Yrotation Zrotation
						End Site
						{
							OFFSET	1	0	0
						}
					}
				}
			}
		}
	}
	JOINT right_hip
	{
		OFFSET	82.8	-127.5	0.300001
		CHANNELS 3  Xrotation Yrotation Zrotation
		JOINT right_knee
		{
			OFFSET	28.2	-396.7	2.2
			CHANNELS 3  Xrotation Yrotation Zrotation
			JOINT right_ankle
			{
				OFFSET	11.7	-411.3	35.4
				CHANNELS 3  Xrotation Yrotation Zrotation
				JOINT right_toes
				{
					OFFSET	0	-60	-88.6
					CHANNELS 3  Xrotation Yrotation Zrotation
					JOINT right_foot_ee
					{
						OFFSET	22.5	-16.5	-42.2
						CHANNELS 3  Xrotation Yrotation Zrotation
						End Site
						{
							OFFSET	1	0	0
						}
					}
				}
			}
		}
	}
}
MOTION
Frames: 14
Frame Time: 0.02
1041.4 574.639 -1682.42 -13.9710733241 16.7365265222 6.5354839223 8.5782 -0.184933 -1.12 8.57889 -0.113294 -1.1295 8.57983 -0.0430953 -1.13435 8.5781 -0.221692 -1.11331 -25.9236 8.98749 -0.638327 -26.6063 17.5567 4.2225 -0.0 0.0 -0.0 -10.6895 24.3116 -11.9674 -18.1986 -13.1367 81.7876 0.873931 -23.4085 0.181053 -22.5904 -1.31719 2.55187 3.80039 5.42834 28.4313 -0.0 0.0 -0.0 8.43511 6.15339 -16.5113 -22.9805 27.0308 -57.6549 1.44124 35.5228 -0.461682 -18.1773 0.981984 -2.09691 -1.01362 0.103004 6.83016 0.0 0.0 0.0 38.9575 -2.09454 -9.88641 0.0749323 -0.00309292 -0.0110831 -5.45287 18.4937 0.819334 26.1594 -0.0 -0.0 -0.0 0.0 -0.0 8.84081 3.23798 -0.723564 -19.5586 -0.300629 -2.97182 35.6231 9.54714 4.6156 -13.1867 0.0 0.0 0.0 0.0 0.0 
1041.4 574.639 -1682.42 -14.013342894 17.2908899245 6.67994387828 8.5782 -0.184933 -1.12 8.57889 -0.113294 -1.1295 8.57983 -0.0430953 -1.13435 8.5781 -0.221692 -1.11331 -25.9236 8.98749 -0.638327 -26.6063 17.5567 4.2225 -0.0 0.0 -0.0 -10.6895 24.3116 -11.9674 -18.1986 -13.1367 81.7876 0.873931 -23.4085 0.181053 -22.5904 -1.31719 2.55187 3.80039 5.42834 28.4313 -0.0 0.0 -0.0 8.43511 6.15339 -16.5113 -22.9805 27.0308 -57.6549 1.44124 35.5228 -0.461682 -18.1773 0.981984 -2.09691 -1.01362 0.103004 6.83016 0.0 0.0 0.0 38.9575 -2.09454 -9.88641 0.0749323 -0.00309292 -0.0110831 -5.45287 18.4937 0.819334 26.1594 -0.0 -0.0 -0.0 0.0 -0.0 8.84081 3.23798 -0.723564 -19.5586 -0.300629 -2.97182 35.6231 9.54714 4.6156 -13.1867 0.0 0.0 0.0 0.0 0.0 
1041.4 574.639 -1682.42 -14.0711466709 18.0170639606 6.8705430136 8.5782 -0.184933 -1.12 8.57889 -0.113294 -1.1295 8.57983 -0.0430953 -1.13435 8.5781 -0.221692 -1.11331 -25.9236 8.98749 -0.638327 -26.6063 17.5567 4.2225 -0.0 0.0 -0.0 -10.6895 24.3116 -11.9674 -18.1986 -13.1367 81.7876 0.873931 -23.4085 0.181053 -22.5904 -1.31719 2.55187 3.80039 5.42834 28.4313 -0.0 0.0 -0.0 8.43511 6.15339 -16.5113 -22.9805 27.0308 -57.6549 1.44124 35.5228 -0.461682 -18.1773 0.981984 -2.09691 -1.01362 0.103004 6.83016 0.0 0.0 0.0 38.9575 -2.09454 -9.88641 0.0749323 -0.00309292 -0.0110831 -5.45287 18.4937 0.819334 26.1594 -0.0 -0.0 -0.0 0.0 -0.0 8.84081 3.23798 -0.723564 -19.5586 -0.300629 -2.97182 35.6231 9.54714 4.6156 -13.1867 0.0 0.0 0.0 0.0 0.0 
1041.4 574.639 -1682.42 -14.0980389699 18.3434462639 6.95673383602 8.5782 -0.184933 -1.12 8.57889 -0.113294 -1.1295 8.57983 -0.0430953 -1.13435 8.5781 -0.221692 -1.11331 -25.9236 8.98749 -0.638327 -26.6063 17.5567 4.2225 -0.0 0.0 -0.0 -10.6895 24.3116 -11.9674 -18.1986 -13.1367 81.7876 0.873931 -23.4085 0.181053 -22.5904 -1.31719 2.55187 3.80039 5.42834 28.4313 -0.0 0.0 -0.0 8.43511 6.15339 -16.5113 -22.9805 27.0308 -57.6549 1.44124 35.5228 -0.461682 -18.1773 0.981984 -2.09691 -1.01362 0.103004 6.83016 0.0 0.0 0.0 38.9575 -2.09454 -9.88641 0.0749323 -0.00309292 -0.0110831 -5.45287 18.4937 0.819334 26.1594 -0.0 -0.0 -0.0 0.0 -0.0 8.84081 3.23798 -0.723564 -19.5586 -0.300629 -2.97182 35.6231 9.54714 4.6156 -13.1867 0.0 0.0 0.0 0.0 0.0 
1041.4 574.639 -1682.42 -14.1478173543 18.9300684456 7.11249980155 8.5782 -0.184933 -1.12 8.57889 -0.113294 -1.1295 8.57983 -0.0430953 -1.13435 8.5781 -0.221692 -1.11331 -25.9236 8.98749 -0.638327 -26.6063 17.5567 4.2225 -0.0 0.0 -0.0 -10.6895 24.3116 -11.9674 -18.1986 -13.1367 81.7876 0.873931 -23.4085 0.181053 -22.5904 -1.31719 2.55187 3.80039 5.42834 28.4313 -0.0 0.0 -0.0 8.43511 6.15339 -16.5113 -22.9805 27.0308 -57.6549 1.44124 35.5228 -0.461682 -18.1773 0.981984 -2.09691 -1.01362 0.103004 6.83016 0.0 0.0 0.0 38.9575 -2.09454 -9.88641 0.0749323 -0.00309292 -0.0110831 -5.45287 18.4937 0.819334 26.1594 -0.0 -0.0 -0.0 0.0 -0.0 8.84081 3.23798 -0.723564 -19.5586 -0.300629 -2.97182 35.6231 9.54714 4.6156 -13.1867 0.0 0.0 0.0 0.0 0.0 
1041.4 574.639 -1682.42 -14.1791789539 19.2887548551 7.20829703675 8.5782 -0.184933 -1.12 8.57889 -0.113294 -1.1295 8.57983 -0.0430953 -1.13435 8.5781 -0.221692 -1.11331 -25.9236 8.98749 -0.638327 -26.6063 17.5567 4.2225 -0.0 0.0 -0.0 -10.6895 24.3116 -11.9674 -18.1986 -13.1367 81.7876 0.873931 -23.4085 0.181053 -22.5904 -1.31719 2.55187 3.80039 5.42834 28.4313 -0.0 0.0 -0.0 8.43511 6.15339 -16.5113 -22.9805 27.0308 -57.6549 1.44124 35.5228 -0.461682 -18.1773 0.981984 -2.09691 -1.01362 0.103004 6.83016 0.0 0.0 0.0 38.9575 -2.09454 -9.88641 0.0749323 -0.00309292 -0.0110831 -5.45287 18.4937 0.819334 26.1594 -0.0 -0.0 -0.0 0.0 -0.0 8.84081 3.23798 -0.723564 -19.5586 -0.300629 -2.97182 35.6231 9.54714 4.6156 -13.1867 0.0 0.0 0.0 0.0 0.0 
1028.28301958 574.811 -1697.66459658 -13.2912128016 18.4082686707 7.24547662901 8.3769 -0.122077 -1.31655 8.37787 -0.0380617 -1.32165 8.37703 0.0485954 -1.3213 8.37463 -0.160671 -1.3124 -27.1566 9.04053 -0.677696 -27.8937 17.6311 4.41572 -0.0 0.0 -0.0 -10.6938 24.271 -11.992 -17.7316 -16.2974 82.095 1.0006 -26.3657 0.234378 -22.346 -1.29771 2.52736 3.89096 5.75498 29.2344 -0.0 0.0 -0.0 8.13787 6.31239 -15.885 -23.5282 27.4225 -58.8688 1.4007 34.7534 -0.438346 -17.488 0.932844 -2.0236 -0.632978 0.352725 4.38357 0.0 0.0 0.0 38.5051 -2.20705 -10.8941 -1.79991 0.0699149 0.267364 -10.7432 19.5416 1.63234 26.616 -0.0 -0.0 -0.0 0.0 -0.0 6.75084 1.24333 -1.14241 -16.5165 -0.320849 -2.50555 35.7512 8.71963 4.61069 -12.3161 0.0 0.0 0.0 0.0 0.0 
1028.03580399 574.811 -1697.44834539 -13.3649176691 19.3188256663 7.47343498216 8.3769 -0.122077 -1.31655 8.37787 -0.0380617 -1.32165 8.37703 0.0485954 -1.3213 8.37463 -0.160671 -1.3124 -27.1566 9.04053 -0.677696 -27.8937 17.6311 4.41572 -0.0 0.0 -0.0 -10.6938 24.271 -11.992 -17.7316 -16.2974 82.095 1.0006 -26.3657 0.234378 -22.346 -1.29771 2.52736 3.89096 5.75498 29.2344 -0.0 0.0 -0.0 8.13787 6.31239 -15.885 -23.5282 27.4225 -58.8688 1.4007 34.7534 -0.438346 -17.488 0.932844 -2.0236 -0.632978 0.352725 4.38357 0.0 0.0 0.0 38.5051 -2.20705 -10.8941 -1.79991 0.0699149 0.267364 -10.7432 19.5416 1.63234 26.616 -0.0 -0.0 -0.0 0.0 -0.0 6.75084 1.24333 -1.14241 -16.5165 -0.320849 -2.50555 35.7512 8.71963 4.61069 -12.3161 0.0 0.0 0.0 0.0 0.0 
1004.60986795 574.126 -1727.74896518 -12.2664420422 19.10587717 9.05243303528 8.30436 -0.25348 -1.63654 8.30584 -0.148844 -1.64935 8.30747 -0.0385106 -1.6556 8.30377 -0.299464 -1.62876 -26.0073 9.33851 -3.26234 -26.8167 19.2809 2.01623 -0.0 0.0 -0.0 -10.9717 23.0135 -12.9815 -16.2324 -18.9473 81.5949 1.25825 -31.9339 0.360024 -20.8727 -1.18254 2.37784 3.74312 5.73529 28.1113 -0.0 0.0 -0.0 7.9231 6.23155 -15.4359 -25.2475 27.4851 -60.8081 1.26173 32.0049 -0.361866 -18.6087 1.01319 -2.14249 0.163183 0.986901 -0.675891 0.0 0.0 0.0 34.9229 -2.10838 -12.6718 -3.3075 0.12198 0.49287 -13.043 19.0156 1.98348 25.0342 -0.0 -0.0 -0.0 0.0 -0.0 5.54125 0.0848308 -1.33183 -20.7481 -0.285996 -3.15374 35.3126 9.63537 4.58739 -14.1052 0.0 0.0 0.0 0.0 0.0 
977.098358386 583.256 -1760.89352474 -10.7332631854 20.6661985394 10.9480448648 8.17798 -0.441734 -1.69235 8.17951 -0.333166 -1.71702 8.1867 -0.214334 -1.73586 8.18282 -0.485752 -1.68025 -24.1876 9.2838 -5.27513 -24.9412 20.1797 -0.173336 -0.0 0.0 -0.0 -12.1016 22.3817 -15.0434 -15.0555 -23.2207 81.4967 1.49071 -36.4418 0.490748 -21.3754 -1.2214 2.42918 2.60436 9.02472 21.041 -0.0 0.0 -0.0 7.38579 3.90973 -14.351 -27.1442 27.1879 -62.8314 1.01821 26.7654 -0.242253 -21.2778 1.21382 -2.41924 0.682695 1.16468 -4.0839 0.0 0.0 0.0 31.3441 -1.88052 -14.5322 -5.26073 0.180573 0.786891 -8.43635 19.9477 1.27968 22.3603 -0.0 -0.0 -0.0 0.0 -0.0 4.37114 -4.81359 -2.96498 -21.5072 -0.274683 -3.26968 35.868 8.66024 4.62071 -15.8327 0.0 0.0 0.0 0.0 0.0 
968.112101941 586.423 -1774.28927668 -11.551183879 22.0185171644 12.7642332898 8.32333 -0.495016 -1.70294 8.32486 -0.385667 -1.73097 8.33362 -0.270274 -1.7527 8.32974 -0.543649 -1.68805 -23.5369 9.22352 -5.79364 -24.2564 20.3598 -0.793516 -0.0 0.0 -0.0 -12.526 21.621 -16.111 -14.077 -24.6083 81.4617 1.58946 -38.2131 0.550635 -21.5673 -1.23635 2.44869 2.3311 9.93773 19.4678 -0.0 0.0 -0.0 7.20698 2.2231 -14.0006 -27.2566 27.2528 -64.4641 0.928762 24.7059 -0.203406 -22.4173 1.30338 -2.53451 0.886345 1.1794 -5.44667 0.0 0.0 0.0 30.643 -1.92399 -16.2121 -5.20121 0.178935 0.777903 -8.08177 21.9783 1.23478 21.6479 -0.0 -0.0 -0.0 0.0 -0.0 3.4192 -7.2347 -4.44693 -21.6542 -0.272316 -3.2921 36.1766 10.3414 4.68642 -16.2683 0.0 0.0 0.0 0.0 0.0 
966.473703688 586.423 -1772.95800374 -11.6369636663 23.0267616895 12.9881641583 8.32333 -0.495016 -1.70294 8.32486 -0.385667 -1.73097 8.33362 -0.270274 -1.7527 8.32974 -0.543649 -1.68805 -23.5369 9.22352 -5.79364 -24.2564 20.3598 -0.793516 -0.0 0.0 -0.0 -12.526 21.621 -16.111 -14.077 -24.6083 81.4617 1.58946 -38.2131 0.550635 -21.5673 -1.23635 2.44869 2.3311 9.93773 19.4678 -0.0 0.0 -0.0 7.20698 2.2231 -14.0006 -27.2566 27.2528 -64.4641 0.928762 24.7059 -0.203406 -22.4173 1.30338 -2.53451 0.886345 1.1794 -5.44667 0.0 0.0 0.0 30.643 -1.92399 -16.2121 -5.20121 0.178935 0.777903 -8.08177 21.9783 1.23478 21.6479 -0.0 -0.0 -0.0 0.0 -0.0 3.4192 -7.2347 -4.44693 -21.6542 -0.272316 -3.2921 36.1766 10.3414 4.68642 -16.2683 0.0 0.0 0.0 0.0 0.0 
955.504145145 596.961 -1785.08379361 -12.6862967219 25.586389282 14.9253744723 8.1493 -0.815965 -1.73632 8.1507 -0.703843 -1.7847 8.16985 -0.579138 -1.82896 8.16621 -0.860679 -1.7146 -23.9381 9.8019 -2.51017 -24.721 19.9917 2.61574 -0.0 0.0 -0.0 -12.2086 21.2903 -15.7589 -9.87147 -23.7163 79.9299 1.5498 -37.5117 0.52629 -21.9853 -1.26916 2.49102 1.38264 13.3145 14.3035 -0.0 0.0 -0.0 7.15179 -0.420578 -13.8919 -27.6656 27.1478 -64.8877 0.784377 21.2339 -0.147035 -23.3188 1.37585 -2.62445 0.192448 0.00221732 -1.2843 0.0 0.0 0.0 28.1696 -1.26883 -17.5775 -0.776507 0.0311938 0.115081 -8.13777 13.3559 1.21405 19.4272 -0.0 -0.0 -0.0 0.0 -0.0 4.78734 -8.4121 -4.91945 -22.823 -0.25144 -3.47023 32.7609 6.86483 4.27989 -17.5932 0.0 0.0 0.0 0.0 0.0 
942.113718269 603.491 -1796.00568026 -11.4988809141 27.6040626108 15.6121001196 7.6748 -0.672561 -1.4695 7.67581 -0.577701 -1.50931 7.68919 -0.459212 -1.54947 7.68652 -0.698133 -1.45753 -25.33 9.95694 2.97725 -25.9886 17.9497 7.98134 -0.0 0.0 -0.0 -12.2699 20.9272 -16.0403 -7.14239 -24.5613 79.2938 1.62537 -38.8367 0.573001 -23.9267 -1.42552 2.68445 1.05044 13.9229 12.3726 -0.0 0.0 -0.0 7.09255 -3.62756 -13.7415 -28.026 27.1206 -65.5446 0.705741 19.2698 -0.119811 -24.2715 1.45397 -2.71825 0.981264 -0.292635 -6.68716 0.0 0.0 0.0 26.0292 -1.61365 -18.4466 -1.50892 0.0591824 0.223997 -5.62794 10.3229 0.833689 18.1588 -0.0 -0.0 -0.0 0.0 -0.0 6.36065 -8.80188 -5.06297 -26.8287 -0.152412 -4.07686 32.3103 3.73922 4.1885 -18.6484 0.0 0.0 0.0 0.0 0.0 
